<svg width="18" height="24" viewBox="0 0 18 24" fill="none" xmlns="http://www.w3.org/2000/svg">
<path d="M9.37829 24C11.5271 24 13.5548 23.3644 15.0378 22.2446C15.855 21.6091 16.4905 20.8525 16.9445 19.9748C17.3985 19.0366 17.6406 18.0076 17.6406 16.8878C17.6406 14.8298 16.9445 13.2257 15.4615 12.0454C14.2509 11.0164 12.6166 10.3808 10.8915 9.71501C10.7099 9.62421 10.4981 9.56368 10.3165 9.47289C9.07564 9.01892 7.92558 8.56494 7.19922 8.08071C6.71499 7.71753 6.38207 7.32409 6.38207 6.628C6.41234 5.08449 7.89532 4.53972 9.16644 4.53972C10.5284 4.53972 12.1627 5.23581 13.6759 6.47667L14.5233 7.17276L17.4287 3.38966L16.6116 2.7541C14.372 0.93821 11.7995 0 9.16644 0C7.13869 0 5.23201 0.665826 3.80956 1.90668C2.35685 3.17781 1.5397 4.87264 1.5397 6.74905C1.5397 7.80832 1.78182 8.80706 2.20553 9.65448C2.62924 10.4414 3.174 11.1072 3.96089 11.7125C5.29254 12.7718 6.92684 13.4376 8.65193 14.0731C8.74273 14.1034 8.86379 14.1337 8.98485 14.1942C10.2257 14.6482 11.285 15.0719 11.9508 15.5561C12.5561 15.9798 12.768 16.4641 12.768 17.1904C12.768 17.8562 12.5258 18.3707 11.9811 18.7642C11.406 19.1879 10.4678 19.43 9.40856 19.43C8.50061 19.43 7.5624 19.2182 6.68472 18.7944C5.77678 18.3707 4.92936 17.7049 4.2938 16.918L3.50692 15.9193L0.359375 19.6419L0.994936 20.338C3.20427 22.6986 6.20048 24 9.37829 24Z" fill="#F9F5F4"/>
</svg>
